<svg width="1348" height="1061" viewBox="0 0 1348 1061" fill="none" xmlns="http://www.w3.org/2000/svg">
<path d="M530.642 227.484C474.186 221.649 430.265 232.573 404.992 258.572C379.765 284.522 374.293 324.299 389.517 372.433C404.747 420.581 439.9 474.568 490.05 526.746C540.195 578.918 602.769 626.615 668.928 663.089C735.089 699.565 801.471 722.966 858.691 729.993C915.925 737.024 961.019 727.309 987.681 702.355C1000.99 689.887 1009.39 673.924 1012.74 655.146C1016.09 636.359 1014.4 614.723 1007.53 590.916C993.767 543.29 959.944 489.471 910.79 437.078M600.446 189.827C495.64 143.038 403.573 125.262 340.8 139.616C309.423 146.792 286.436 161.75 272.438 183.414C258.444 205.071 253.388 233.499 257.987 267.732C267.192 336.236 314.442 423.329 391.335 513.32C468.214 603.293 569.62 690.187 677.293 758.35C784.969 826.514 891.811 871.451 978.584 885.089C1021.97 891.908 1058.89 890.674 1087.98 881.831C1117.08 872.989 1138.31 856.549 1150.39 832.973C1162.48 809.398 1165.05 779.383 1158.37 744.521C1151.67 709.656 1135.72 669.977 1110.81 627.128C1060.97 541.431 978.592 448.768 878.48 365.838M14.8642 79.6118C-59.8264 232.881 174.731 558.987 538.761 807.991C902.793 1056.99 1258.44 1134.6 1333.14 981.338C1407.83 828.065 1173.28 501.959 809.241 252.955C445.209 3.9512 89.5545 -73.6571 14.8642 79.6118Z" stroke="white" stroke-opacity="0.16" stroke-width="1.18623"/>
</svg>
