<svg width="1347" height="1060" viewBox="0 0 1347 1060" fill="none" xmlns="http://www.w3.org/2000/svg">
<g filter="url(#filter0_b_4_24)">
<path d="M53 820H1333V939H53V820Z" fill="black" fill-opacity="0.1"/>
<path d="M530.507 226.647C474.05 220.811 430.13 231.735 404.857 257.734C379.63 283.684 374.158 323.461 389.382 371.595C404.611 419.743 439.765 473.73 489.915 525.909C540.059 578.08 602.634 625.777 668.793 662.252C734.953 698.728 801.335 722.128 858.556 729.155C915.79 736.186 960.884 726.471 987.545 701.517C1000.86 689.05 1009.25 673.087 1012.6 654.308C1015.95 635.521 1014.26 613.886 1007.39 590.078C993.632 542.452 959.809 488.633 910.654 436.24M600.311 188.989C495.504 142.2 403.438 124.424 340.665 138.778C309.287 145.954 286.3 160.913 272.302 182.576C258.309 204.233 253.252 232.661 257.852 266.894C267.057 335.398 314.306 422.492 391.2 512.482C468.079 602.455 569.485 689.349 677.158 757.512C784.834 825.676 891.676 870.613 978.449 884.251C1021.83 891.07 1058.75 889.836 1087.85 880.993C1116.94 872.151 1138.18 855.711 1150.26 832.135C1162.34 808.56 1164.91 778.545 1158.23 743.683C1151.53 708.818 1135.59 669.139 1110.67 626.29C1060.83 540.593 978.457 447.931 878.345 365M14.7288 78.774C-59.9617 232.043 174.595 558.149 538.626 807.153C902.658 1056.16 1258.31 1133.76 1333 980.5C1407.69 827.227 1173.14 501.121 809.105 252.117C445.074 3.11334 89.4191 -74.495 14.7288 78.774Z" fill="black" fill-opacity="0.1"/>
</g>
<defs>
<filter id="filter0_b_4_24" x="-7.13538" y="-7.86536" width="1362" height="1075" filterUnits="userSpaceOnUse" color-interpolation-filters="sRGB">
<feFlood flood-opacity="0" result="BackgroundImageFix"/>
<feGaussianBlur in="BackgroundImageFix" stdDeviation="4"/>
<feComposite in2="SourceAlpha" operator="in" result="effect1_backgroundBlur_4_24"/>
<feBlend mode="normal" in="SourceGraphic" in2="effect1_backgroundBlur_4_24" result="shape"/>
</filter>
</defs>
</svg>
